<svg width="35" height="35" viewBox="0 0 24 24" fill="none" xmlns="http://www.w3.org/2000/svg">
<path d="M17.9912 3.95996C18.4884 3.87155 19.0863 3.85611 19.5625 4.25781L19.6562 4.34375L19.7422 4.4375C20.1437 4.91371 20.1285 5.51167 20.04 6.00879C19.9447 6.54458 19.7141 7.22865 19.4463 8.03223L17.2832 14.5225C17.0136 15.3311 16.8019 15.9657 16.6182 16.4365C16.4444 16.8819 16.2536 17.2989 15.9824 17.5811C14.9005 18.7066 13.0996 18.7064 12.0176 17.5811C11.7465 17.2989 11.5556 16.8818 11.3818 16.4365C11.1981 15.9657 10.9863 15.3311 10.7168 14.5225C10.5994 14.1702 10.5648 14.0753 10.5234 13.9971C10.4062 13.7753 10.2246 13.5939 10.0029 13.4766C9.92466 13.4352 9.82993 13.4007 9.47754 13.2832C8.669 13.0137 8.03432 12.8019 7.56348 12.6182C7.11823 12.4444 6.70114 12.2535 6.41895 11.9824C5.29329 10.9004 5.29329 9.09961 6.41895 8.01758C6.70114 7.74643 7.11811 7.5556 7.56348 7.38184C8.03433 7.19813 8.66892 6.98634 9.47754 6.7168L15.9678 4.55371C16.7713 4.28586 17.4554 4.05528 17.9912 3.95996ZM18.2539 5.4375C17.8526 5.50891 17.2942 5.69261 16.4424 5.97656L9.95117 8.13965C9.12664 8.41449 8.53555 8.61265 8.1084 8.7793C7.65615 8.95577 7.50118 9.05718 7.45801 9.09863C6.94642 9.59046 6.94642 10.4095 7.45801 10.9014C7.5015 10.943 7.65695 11.0445 8.1084 11.2207C8.53553 11.3873 9.12674 11.5855 9.95117 11.8604C10.2559 11.9619 10.4907 12.0376 10.7041 12.1504C11.192 12.4085 11.5915 12.8079 11.8496 13.2959C11.9624 13.5093 12.0381 13.7441 12.1396 14.0488C12.4145 14.8733 12.6127 15.4645 12.7793 15.8916C12.9558 16.3438 13.0572 16.4989 13.0986 16.542C13.5905 17.0533 14.4096 17.0535 14.9014 16.542C14.9428 16.4988 15.0442 16.3438 15.2207 15.8916C15.3874 15.4645 15.5855 14.8734 15.8604 14.0488L18.0234 7.55762C18.3074 6.70576 18.4911 6.14739 18.5625 5.74609C18.5962 5.55669 18.5934 5.45798 18.5869 5.41211C18.5407 5.40574 18.442 5.40406 18.2539 5.4375Z" fill="white"/>
</svg>
