<svg width="9" height="10" viewBox="0 0 9 10" fill="none" xmlns="http://www.w3.org/2000/svg">
<path d="M7.99253 2C7.96752 2 7.94751 1.995 7.9225 1.99L7.24219 1.78995L6.56187 1.99C6.47183 2.015 6.38179 1.99 6.31676 1.92498C6.25173 1.85997 6.22672 1.76495 6.25173 1.67993L6.45182 0.999761L6.25173 0.319614C6.22672 0.229594 6.25173 0.134567 6.31676 0.074554C6.38179 0.0145405 6.47683 -0.015466 6.56187 0.00953959L7.24219 0.209584L7.9225 0.00953959C8.00754 -0.015466 8.10259 0.00953941 8.16762 0.074554C8.23265 0.139569 8.25766 0.234595 8.23265 0.319614L8.03255 0.999761L8.23265 1.67993C8.25766 1.76995 8.23265 1.86497 8.16762 1.92498C8.12259 1.97499 8.05756 2 7.99253 2ZM7.24219 1.27984C7.2672 1.27984 7.28721 1.28484 7.31222 1.28984L7.74288 1.50034L7.60527 1.06978C7.59026 1.02477 7.59026 0.974755 7.60527 0.929745L7.74288 0.500112L7.31222 0.633337C7.2672 0.64834 7.21718 0.64834 7.17216 0.633337L6.74242 0.500112L6.89598 0.929745C6.91099 0.974755 6.91099 1.02477 6.89598 1.06978L6.74242 1.50034L7.17216 1.28984C7.19717 1.28484 7.21718 1.27984 7.24219 1.27984Z" fill="black"/>
<path d="M7.95569 5.52959C7.90263 5.58265 7.84958 5.61449 7.78591 5.65694L5.91838 6.67574L4.89958 8.54327C4.76162 8.78732 4.51756 8.92528 4.2417 8.92532C3.96583 8.92535 3.7112 8.77684 3.58391 8.54343L2.56552 6.67611L0.698245 5.65776C0.454226 5.51986 0.305702 5.26522 0.316344 4.99996C0.326986 4.7347 0.464951 4.46943 0.698391 4.34208L2.56592 3.32327L3.58472 1.45575C3.71207 1.22231 3.96674 1.07374 4.2426 1.0737C4.51847 1.07367 4.77311 1.22219 4.9004 1.4556L5.91875 3.32288L7.78607 4.34127C8.03009 4.47917 8.1786 4.7338 8.16796 4.99906C8.17854 5.20065 8.09364 5.39164 7.95569 5.52959ZM4.83627 5.59363C4.88933 5.54057 4.94238 5.50873 5.00605 5.46628L6.36615 4.99924L5.16088 4.37782C5.03356 4.31418 4.92746 4.20808 4.86382 4.08076L4.24435 2.87744L3.61339 4.07363C3.54971 4.20096 3.4436 4.30707 3.31627 4.37075L2.12205 4.99975L3.35919 5.58539C3.48651 5.64903 3.59261 5.75513 3.65625 5.88245L4.24384 7.12154L4.70893 5.76341C4.75137 5.69974 4.78321 5.64669 4.83627 5.59363Z" fill="black"/>
</svg>
