<svg width="26" height="26" viewBox="0 0 24 24" fill="none" xmlns="http://www.w3.org/2000/svg">
<g clip-path="url(#clip0_13_89)">
<mask id="mask0_13_89" style="mask-type:luminance" maskUnits="userSpaceOnUse" x="0" y="0" width="24" height="24">
<path d="M24 0H0V24H24V0Z" fill="white"/>
</mask>
<g mask="url(#mask0_13_89)">
<path d="M8.99945 17.7505C8.58945 17.7505 8.24945 17.4105 8.24945 17.0005V12.8105L7.52945 13.5305C7.23945 13.8205 6.75945 13.8205 6.46945 13.5305C6.17945 13.2405 6.17945 12.7605 6.46945 12.4705L8.46945 10.4705C8.67945 10.2605 9.00945 10.1905 9.28945 10.3105C9.56945 10.4205 9.74945 10.7005 9.74945 11.0005V17.0005C9.74945 17.4105 9.40945 17.7505 8.99945 17.7505Z" fill="white"/>
<path d="M10.9994 13.7495C10.8094 13.7495 10.6194 13.6795 10.4694 13.5295L8.46945 11.5295C8.17945 11.2395 8.17945 10.7595 8.46945 10.4695C8.75945 10.1795 9.23945 10.1795 9.52945 10.4695L11.5294 12.4695C11.8194 12.7595 11.8194 13.2395 11.5294 13.5295C11.3794 13.6795 11.1894 13.7495 10.9994 13.7495Z" fill="white"/>
<path d="M15 22.75H9C3.57 22.75 1.25 20.43 1.25 15V9C1.25 3.57 3.57 1.25 9 1.25H14C14.41 1.25 14.75 1.59 14.75 2C14.75 2.41 14.41 2.75 14 2.75H9C4.39 2.75 2.75 4.39 2.75 9V15C2.75 19.61 4.39 21.25 9 21.25H15C19.61 21.25 21.25 19.61 21.25 15V10C21.25 9.59 21.59 9.25 22 9.25C22.41 9.25 22.75 9.59 22.75 10V15C22.75 20.43 20.43 22.75 15 22.75Z" fill="white"/>
<path d="M22 10.7505H18C14.58 10.7505 13.25 9.42048 13.25 6.00048V2.00048C13.25 1.70048 13.43 1.42048 13.71 1.31048C13.99 1.19048 14.31 1.26048 14.53 1.47048L22.53 9.47048C22.74 9.68048 22.81 10.0105 22.69 10.2905C22.57 10.5705 22.3 10.7505 22 10.7505ZM14.75 3.81048V6.00048C14.75 8.58048 15.42 9.25048 18 9.25048H20.19L14.75 3.81048Z" fill="white"/>
</g>
</g>
<defs>
<clipPath id="clip0_13_89">
<rect width="24" height="24" fill="white"/>
</clipPath>
</defs>
</svg>
